<svg xmlns="http://www.w3.org/2000/svg" width="241.293" height="51.15" viewBox="0 0 241.293 51.15">
  <g id="Grupo_617" data-name="Grupo 617" transform="translate(-180 -246.562)">
    <g id="Grupo_607" data-name="Grupo 607" transform="translate(270.517 289.245)">
      <path id="Caminho_10108" data-name="Caminho 10108" d="M365.872,336.729h-3.706v3.543h-1.395v-8.14h1.395v3.379h3.706v-3.379h1.394v8.14h-1.394Z" transform="translate(-360.772 -331.968)" fill="#fff"/>
      <path id="Caminho_10109" data-name="Caminho 10109" d="M393.1,340.272a3.762,3.762,0,0,1-2.883-1.262,4.078,4.078,0,0,1-.8-1.357,4.79,4.79,0,0,1-.276-1.627,4.684,4.684,0,0,1,.282-1.633,4.174,4.174,0,0,1,.8-1.344,3.7,3.7,0,0,1,1.243-.91,4.171,4.171,0,0,1,3.266,0,3.711,3.711,0,0,1,1.244.91,4.181,4.181,0,0,1,.8,1.344,4.684,4.684,0,0,1,.282,1.633,4.9,4.9,0,0,1-.27,1.627,4.1,4.1,0,0,1-.779,1.357,3.666,3.666,0,0,1-1.243.923A3.934,3.934,0,0,1,393.1,340.272Zm0-1.281a2.46,2.46,0,0,0,.973-.195,2.247,2.247,0,0,0,.8-.571,2.8,2.8,0,0,0,.54-.93,4.07,4.07,0,0,0,0-2.525,2.807,2.807,0,0,0-.54-.929,2.248,2.248,0,0,0-.8-.572,2.537,2.537,0,0,0-1.947,0,2.248,2.248,0,0,0-.8.572,2.816,2.816,0,0,0-.54.929,4.07,4.07,0,0,0,0,2.525,2.813,2.813,0,0,0,.54.93,2.247,2.247,0,0,0,.8.571A2.46,2.46,0,0,0,393.1,338.99Z" transform="translate(-374.939 -331.805)" fill="#fff"/>
      <path id="Caminho_10110" data-name="Caminho 10110" d="M418.449,332.131h6.042v1.244h-2.324v6.9h-1.382v-6.9h-2.336Z" transform="translate(-389.569 -331.968)" fill="#fff"/>
      <path id="Caminho_10111" data-name="Caminho 10111" d="M445.518,332.131h4.9v1.244h-3.505v2.173h3.3v1.168h-3.3v2.336h3.505v1.219h-4.9Z" transform="translate(-403.084 -331.968)" fill="#fff"/>
      <path id="Caminho_10112" data-name="Caminho 10112" d="M471.309,332.131H472.7v6.859h3.518v1.281h-4.912Z" transform="translate(-415.961 -331.968)" fill="#fff"/>
    </g>
    <g id="Grupo_614" data-name="Grupo 614" transform="translate(180 246.562)">
      <g id="Grupo_608" data-name="Grupo 608">
        <path id="Caminho_10113" data-name="Caminho 10113" d="M316.081,280.712c0,6.413-4.2,9.248-9.361,9.248-5.189,0-9.4-2.835-9.4-9.248,0-6.2,4.208-9.216,9.4-9.216,5.156,0,9.361,2.942,9.361,9.216m-4.287,0c0-5.7-1.653-8.427-5.074-8.427s-5.111,2.759-5.111,8.427c0,5.875,1.693,8.42,5.111,8.42s5.074-2.545,5.074-8.42" transform="translate(-238.577 -259.011)" fill="#fff"/>
        <path id="Caminho_10114" data-name="Caminho 10114" d="M378.164,289.161s-1.62-.1-1.917-.653a12,12,0,0,1-.393-3.565V272.4c-.082-.462-.461-.673-.971-.187a4.964,4.964,0,0,1-2.086,1.171,1.325,1.325,0,0,1-.582-.15l-.164-.081a10.286,10.286,0,0,0-5.681-1.55c-5.187,0-9.4,3.012-9.4,9.214,0,6.415,4.21,9.247,9.4,9.247a10.4,10.4,0,0,0,5.639-1.493v.013c.061-.041.116-.083.177-.124.081-.057.165-.115.246-.174a2.727,2.727,0,0,0,2.167,1.64h3.321c.466,0,.614-.466.245-.767m-11.794.079c-3.416,0-5.108-2.544-5.108-8.422,0-5.665,1.692-8.426,5.108-8.426s5.075,2.724,5.075,8.426c0,5.878-1.651,8.422-5.075,8.422" transform="translate(-268.359 -259.065)" fill="#fff"/>
        <path id="Caminho_10115" data-name="Caminho 10115" d="M239.513,272.559a8.715,8.715,0,0,1,.378,3.061c-.012.14-.017,8.747-.017,13.872h3.98V276.209c0-2.162.162-5.03-3.945-5.03l-2.058.012c-.352,0-.491.45-.18.737,0,0,1.571-.029,1.843.632" transform="translate(-208.707 -258.853)" fill="#fff"/>
        <path id="Caminho_10116" data-name="Caminho 10116" d="M240.543,257.332a2.359,2.359,0,1,1,2.364,2.353,2.365,2.365,0,0,1-2.364-2.353" transform="translate(-210.228 -250.762)" fill="#fff" fill-rule="evenodd"/>
        <path id="Caminho_10117" data-name="Caminho 10117" d="M342.447,281.531l-.014-21.51c0-2.163.018-4.893-4.087-4.893l-2.057.014c-.353,0-.492.45-.181.737,0,0,1.568-.029,1.843.631a8.7,8.7,0,0,1,.375,3.062l-.019,21.959Z" transform="translate(-257.855 -250.839)" fill="#fff"/>
        <path id="Caminho_10118" data-name="Caminho 10118" d="M275.426,285.583a.584.584,0,0,0-.628.193c-4.763,5.057-10.937,3.114-10.9-4.791h-.019c0-.009,0-.013,0-.021h.021s-.012,0-.021,0v-.019a.061.061,0,0,0,.021,0c0-.052.008-.1.008-.151H263.9c-.02-7.875,6.143-9.806,10.9-4.757a.584.584,0,0,0,.628.192c.4-.121.35-.685.207-.866-.035-.042-.079-.089-.116-.131-.008-.013-.012-.032-.019-.043a8.579,8.579,0,0,0-6.939-3.519c-5.418,0-8.729,3.494-9.124,8.244h0c0,.02,0,.038,0,.057-.022.281-.037.566-.037.857v.162c0,.29.015.574.037.855,0,.018,0,.037,0,.055h0c.4,4.752,3.706,8.246,9.124,8.246a8.581,8.581,0,0,0,6.939-3.519c.007-.011.011-.03.019-.044.037-.043.081-.09.116-.13.143-.182.195-.747-.207-.867" transform="translate(-219.641 -259.095)" fill="#fff"/>
        <path id="Caminho_10119" data-name="Caminho 10119" d="M203.865,249.412h-2.79v18.871a53.492,53.492,0,0,0-13.742-14.525c-5-3.4-5.091-6.129-5.351-6.716-.319-.721-.781-.416-.781-.416a9.2,9.2,0,0,0-.64,1.514A6.846,6.846,0,0,0,180,250.98a6.1,6.1,0,0,0,.741,3,9.977,9.977,0,0,0,1.082,1.967v21.507h2.766v-19.04c15.2,8.924,17.664,18.134,17.878,18.435l.072.141s.082.131.095.141c.375.287,1.281.009,1.232-.54v-.242h0Z" transform="translate(-180 -246.562)" fill="#fff"/>
      </g>
      <g id="Grupo_613" data-name="Grupo 613" transform="translate(120.001 4.644)">
        <path id="Caminho_10120" data-name="Caminho 10120" d="M603.245,290.031H597.7V274.592a2.494,2.494,0,0,0-2.495-2.65v-.468h4.925a3.054,3.054,0,0,1,3.118,3.118Z" transform="translate(-507.303 -263.645)" fill="#fff"/>
        <path id="Caminho_10121" data-name="Caminho 10121" d="M445.251,255.839s10.588,0,10.588,6.608-10.575,6.609-10.588,6.609v-.468s4.162,0,4.162-6.142-4.162-6.1-4.162-6.1Z" transform="translate(-432.436 -255.838)" fill="#fff"/>
        <path id="Caminho_10122" data-name="Caminho 10122" d="M428.187,282.223h-6.036V258.955a2.494,2.494,0,0,0-2.494-2.65v-.468h5.412a3.053,3.053,0,0,1,3.117,3.118Z" transform="translate(-419.657 -255.837)" fill="#fff"/>
        <path id="Caminho_10123" data-name="Caminho 10123" d="M458.153,298.117h-5.032A5.025,5.025,0,0,1,448.859,295l-3.443-7.331h5.833l4.48,7.33c1.614,2.64,2.424,2.65,2.424,2.65Z" transform="translate(-432.518 -271.731)" fill="#fff"/>
        <g id="Grupo_609" data-name="Grupo 609" transform="translate(27.679 8.03)">
          <path id="Caminho_10124" data-name="Caminho 10124" d="M483.416,289.707v.468s-8.481,0-8.481-9.159c0-9.142,8.481-9.142,8.481-9.142v.468s-2.659,0-2.659,8.674C480.756,289.707,483.416,289.707,483.416,289.707Z" transform="translate(-474.935 -271.874)" fill="#fff"/>
          <path id="Caminho_10125" data-name="Caminho 10125" d="M501.556,281.016c0-8.674-2.659-8.674-2.659-8.674v-.468s8.481,0,8.481,9.142c0,9.159-8.481,9.159-8.481,9.159v-.468S501.556,289.707,501.556,281.016Z" transform="translate(-486.899 -271.874)" fill="#fff"/>
        </g>
        <g id="Grupo_610" data-name="Grupo 610" transform="translate(100.812 8.03)">
          <path id="Caminho_10126" data-name="Caminho 10126" d="M629.471,289.707v.468s-8.481,0-8.481-9.159c0-9.142,8.481-9.142,8.481-9.142v.468s-2.659,0-2.659,8.674C626.812,289.707,629.471,289.707,629.471,289.707Z" transform="translate(-620.99 -271.874)" fill="#fff"/>
          <path id="Caminho_10127" data-name="Caminho 10127" d="M647.612,281.016c0-8.674-2.66-8.674-2.66-8.674v-.468s8.481,0,8.481,9.142c0,9.159-8.481,9.159-8.481,9.159v-.468S647.612,289.707,647.612,281.016Z" transform="translate(-632.954 -271.874)" fill="#fff"/>
        </g>
        <g id="Grupo_611" data-name="Grupo 611" transform="translate(51.765 7.83)">
          <path id="Caminho_10128" data-name="Caminho 10128" d="M539.136,271.943v-.468h2.338a3.053,3.053,0,0,1,3.117,3.118v2.338h-.468C544.124,275.372,540.695,271.943,539.136,271.943Z" transform="translate(-531.075 -271.475)" fill="#fff"/>
          <path id="Caminho_10129" data-name="Caminho 10129" d="M528.494,302.658v.468h-2.338a3.054,3.054,0,0,1-3.118-3.118V297.67h.468C523.506,299.229,526.935,302.658,528.494,302.658Z" transform="translate(-523.038 -284.554)" fill="#fff"/>
          <path id="Caminho_10130" data-name="Caminho 10130" d="M538.138,284.952c0,5.1-5.294,5.1-5.294,5.1v-.468s4.392-3.247-3.969-6.862c-.742-.321-5.837-2.116-5.837-6.186,0-5.057,5.446-5.057,5.446-5.057v.468s-4.3,2.681,2.076,5.978C533.706,279.547,538.138,281.012,538.138,284.952Z" transform="translate(-523.038 -271.475)" fill="#fff"/>
        </g>
        <g id="Grupo_612" data-name="Grupo 612" transform="translate(70.463 7.83)">
          <path id="Caminho_10131" data-name="Caminho 10131" d="M576.476,271.943v-.468h2.338a3.053,3.053,0,0,1,3.118,3.118v2.338h-.468C581.464,275.372,578.035,271.943,576.476,271.943Z" transform="translate(-568.416 -271.475)" fill="#fff"/>
          <path id="Caminho_10132" data-name="Caminho 10132" d="M565.835,302.658v.468H563.5a3.054,3.054,0,0,1-3.117-3.118V297.67h.468C560.847,299.229,564.276,302.658,565.835,302.658Z" transform="translate(-560.379 -284.554)" fill="#fff"/>
          <path id="Caminho_10133" data-name="Caminho 10133" d="M575.478,284.952c0,5.1-5.294,5.1-5.294,5.1v-.468s4.392-3.247-3.969-6.862c-.743-.321-5.837-2.116-5.837-6.186,0-5.057,5.445-5.057,5.445-5.057v.468s-4.3,2.681,2.076,5.978C571.047,279.547,575.478,281.012,575.478,284.952Z" transform="translate(-560.379 -271.475)" fill="#fff"/>
        </g>
      </g>
    </g>
  </g>
</svg>
